<svg width="164" height="49" xmlns="http://www.w3.org/2000/svg"><path d="M4.738 3.9c2.622 0 3.749 1.219 3.749 3.703v.575c0 1.656-.506 2.714-1.633 3.243 1.357.529 1.886 1.748 1.886 3.45v1.311C8.74 18.666 7.429 20 4.899 20H.92V3.9h3.818zm-.161 8.855H3.45V17.7h1.449c.851 0 1.311-.391 1.311-1.587V14.71c0-1.495-.483-1.955-1.633-1.955zM4.669 6.2H3.45v4.255h.989c.943 0 1.518-.414 1.518-1.702v-.897c0-1.15-.391-1.656-1.288-1.656zm10.424 7.797h2.392v2.139c0 2.576-1.288 4.048-3.772 4.048s-3.772-1.472-3.772-4.048V7.764c0-2.576 1.288-4.048 3.772-4.048s3.772 1.472 3.772 4.048v1.564h-2.392V7.603c0-1.15-.506-1.587-1.31-1.587-.806 0-1.312.437-1.312 1.587v8.694c0 1.15.506 1.564 1.311 1.564.805 0 1.311-.414 1.311-1.564v-2.3zM21.446 6.2v4.485h3.473v2.3h-3.473V17.7h4.37V20h-6.9V3.9h6.9v2.3h-4.37zM19.491.841H21.7v2.208h-2.208V.841zm3.496 0h2.208v2.208h-2.208V.841zM28.237 20h-.966v-2.438h2.438v2.185L28.605 22.3H27.57l.667-2.3zm11.81-16.1h2.53V20h-2.53v-6.486c-.553.598-1.473.897-2.163.897-2.07 0-3.15-1.495-3.15-3.703V3.9h2.53v6.601c0 1.081.666 1.587 1.471 1.587s1.311-.575 1.311-1.656V3.9zm3.546 2.3V3.9h7.82v2.3h-2.645V20h-2.53V6.2h-2.645zm11.138 1.403v8.694c0 1.15.506 1.587 1.31 1.587.806 0 1.312-.437 1.312-1.587V7.603c0-1.15-.506-1.587-1.311-1.587-.805 0-1.311.437-1.311 1.587zm-2.53 8.533V7.764c0-2.576 1.357-4.048 3.84-4.048 2.485 0 3.842 1.472 3.842 4.048v8.372c0 2.576-1.357 4.048-3.841 4.048S52.2 18.712 52.2 16.136zM67.39 13.1V20h-2.53V3.9h2.53v6.9h2.875V3.9h2.576V20h-2.576v-6.9h-2.875zm15.507-9.2l-2.714 12.006c-.598 2.898-1.587 4.347-5.106 4.117v-2.254c1.288.092 2.024-.138 2.231-1.311l.023-.138L73.836 3.9h2.507l1.38 5.497.782 3.772.598-3.749 1.15-5.52h2.645zm8.24 0v6.509l2.99-6.509h2.53l-3.106 6.532L96.657 20h-2.599l-2.3-7.13-.62 1.219V20H88.63v-5.911l-.62-1.242L85.71 20h-2.6l3.129-9.499L83.11 3.9h2.53l2.99 6.509V3.9h2.507zm9.02 9.2V20h-2.53V3.9h2.53v6.9h2.876V3.9h2.576V20h-2.576v-6.9h-2.875zm9.505-5.497v8.694c0 1.15.506 1.587 1.311 1.587.805 0 1.311-.437 1.311-1.587V7.603c0-1.15-.506-1.587-1.311-1.587-.805 0-1.311.437-1.311 1.587zm-2.53 8.533V7.764c0-2.576 1.357-4.048 3.841-4.048s3.841 1.472 3.841 4.048v8.372c0 2.576-1.357 4.048-3.841 4.048s-3.841-1.472-3.841-4.048zm17.536-7.383v-.897c0-1.449-.506-1.84-1.31-1.84-.806 0-1.335.437-1.335 1.587v1.311h-2.323V7.718c0-2.576 1.242-4.002 3.726-4.002s3.772 1.472 3.772 4.048v.414c0 1.725-.552 2.806-1.77 3.312 1.264.552 1.77 1.748 1.77 3.381v1.265c0 2.576-1.288 4.048-3.772 4.048s-3.772-1.472-3.772-4.048v-1.771h2.392v1.932c0 1.15.506 1.587 1.311 1.587.805 0 1.311-.391 1.311-1.817v-1.265c0-1.495-.506-2.047-1.656-2.047h-.62v-2.3h.758c.943 0 1.518-.414 1.518-1.702zm6.653 4.347V20h-2.53V3.9h2.53v6.9h2.875V3.9h2.576V20h-2.576v-6.9h-2.875zm12.793-9.2L146.69 20h-2.553l-.437-2.921h-3.105L140.159 20h-2.323l2.576-16.1h3.703zm-1.978 2.852l-1.22 8.142h2.439l-1.22-8.142zm4.881-.552V3.9h7.82v2.3h-2.645V20h-2.53V6.2h-2.645zm12.54 13.8h-3.726V3.9h2.53v6.049h1.196c2.53 0 3.772 1.403 3.772 3.979v2.093c0 2.576-1.242 3.979-3.772 3.979zm-1.196-2.3h1.196c.805 0 1.242-.368 1.242-1.518v-2.415c0-1.15-.437-1.518-1.242-1.518h-1.196V17.7zM3.243 35.703v8.694c0 1.15.506 1.587 1.311 1.587.805 0 1.311-.437 1.311-1.587v-8.694c0-1.15-.506-1.587-1.311-1.587-.805 0-1.311.437-1.311 1.587zm-2.53 8.533v-8.372c0-2.576 1.357-4.048 3.841-4.048s3.841 1.472 3.841 4.048v8.372c0 2.576-1.357 4.048-3.841 4.048S.713 46.812.713 44.236zm17.605-2.139h2.392v2.139c0 2.576-1.288 4.048-3.772 4.048s-3.772-1.472-3.772-4.048v-8.372c0-2.576 1.288-4.048 3.772-4.048s3.772 1.472 3.772 4.048v1.564h-2.392v-1.725c0-1.15-.506-1.587-1.31-1.587-.806 0-1.312.437-1.312 1.587v8.694c0 1.15.506 1.564 1.311 1.564.805 0 1.311-.414 1.311-1.564v-2.3zm3.088-7.797V32h7.82v2.3H26.58v13.8h-2.53V34.3h-2.645zM35.832 32l2.576 16.1h-2.553l-.437-2.921h-3.105l-.437 2.921h-2.323L32.129 32h3.703zm-1.978 2.852l-1.22 8.142h2.439l-1.22-8.142zM43.289 32c2.622 0 3.75 1.219 3.75 3.703v.575c0 1.656-.507 2.714-1.634 3.243 1.357.529 1.886 1.748 1.886 3.45v1.311c0 2.484-1.31 3.818-3.84 3.818h-3.98V32h3.818zm-.16 8.855H42V45.8h1.45c.85 0 1.31-.391 1.31-1.587V42.81c0-1.495-.483-1.955-1.633-1.955zm.091-6.555h-1.219v4.255h.99c.942 0 1.517-.414 1.517-1.702v-.897c0-1.15-.39-1.656-1.288-1.656zm11.252 13.8l-2.46-6.417-.783 1.472V48.1H48.7V32h2.53v7.015L54.541 32h2.53l-3.519 7.176 3.52 8.924h-2.6zM63.724 32L66.3 48.1h-2.553l-.437-2.921h-3.105l-.437 2.921h-2.323L60.02 32h3.703zm-1.978 2.852l-1.22 8.142h2.439l-1.22-8.142zM73.458 32h2.346l-2.645 7.82 2.829 8.28H73.32l-2.07-6.371-2.093 6.371h-2.37l2.83-8.28L66.972 32h2.622l1.909 5.934L73.458 32z" fill="#292929" fill-rule="evenodd"/></svg>
