<?xml version="1.0" encoding="UTF-8"?>
<svg width="181px" height="46px" viewBox="0 0 181 46" version="1.1" xmlns="http://www.w3.org/2000/svg" xmlns:xlink="http://www.w3.org/1999/xlink">
    <!-- Generator: Sketch 52.4 (67378) - http://www.bohemiancoding.com/sketch -->
    <title>text1</title>
    <desc>Created with Sketch.</desc>
    <g id="Page-1" stroke="none" stroke-width="1" fill="none" fill-rule="evenodd">
        <g id="240x400_kn5" transform="translate(-11.000000, -225.000000)" fill="#292929">
            <path d="M17.693,242 L15.232,235.583 L14.45,237.055 L14.45,242 L11.92,242 L11.92,225.9 L14.45,225.9 L14.45,232.915 L17.762,225.9 L20.292,225.9 L16.773,233.076 L20.292,242 L17.693,242 Z M26.9442273,225.9 L29.5202273,242 L26.9672273,242 L26.5302273,239.079 L23.4252273,239.079 L22.9882273,242 L20.6652273,242 L23.2412273,225.9 L26.9442273,225.9 Z M24.9662273,228.752 L23.7472273,236.894 L26.1852273,236.894 L24.9662273,228.752 Z M36.3564546,242 L33.8954546,235.583 L33.1134546,237.055 L33.1134546,242 L30.5834546,242 L30.5834546,225.9 L33.1134546,225.9 L33.1134546,232.915 L36.4254546,225.9 L38.9554546,225.9 L35.4364546,233.076 L38.9554546,242 L36.3564546,242 Z M47.1769092,225.9 C49.7069092,225.9 50.9489092,227.303 50.9489092,229.879 L50.9489092,231.972 C50.9489092,234.548 49.7069092,235.951 47.1769092,235.951 L45.9809092,235.951 L45.9809092,242 L43.4509092,242 L43.4509092,225.9 L47.1769092,225.9 Z M47.1769092,228.2 L45.9809092,228.2 L45.9809092,233.651 L47.1769092,233.651 C47.9819092,233.651 48.4189092,233.283 48.4189092,232.133 L48.4189092,229.718 C48.4189092,228.568 47.9819092,228.2 47.1769092,228.2 Z M57.6241365,225.9 L60.2001365,242 L57.6471365,242 L57.2101365,239.079 L54.1051365,239.079 L53.6681365,242 L51.3451365,242 L53.9211365,225.9 L57.6241365,225.9 Z M55.6461365,228.752 L54.4271365,236.894 L56.8651365,236.894 L55.6461365,228.752 Z M65.2883638,242 L61.2863638,242 L61.2863638,225.9 L68.3703638,225.9 L68.3703638,228.2 L63.8163638,228.2 L63.8163638,232.317 L65.2883638,232.317 C67.8183638,232.317 69.1063638,233.72 69.1063638,236.296 L69.1063638,238.021 C69.1063638,240.597 67.8183638,242 65.2883638,242 Z M63.8163638,239.7 L65.2883638,239.7 C66.0933638,239.7 66.5763638,239.332 66.5763638,238.182 L66.5763638,236.135 C66.5763638,234.985 66.0933638,234.617 65.2883638,234.617 L63.8163638,234.617 L63.8163638,239.7 Z M73.0215911,229.603 L73.0215911,238.297 C73.0215911,239.447 73.5275911,239.884 74.3325911,239.884 C75.1375911,239.884 75.6435911,239.447 75.6435911,238.297 L75.6435911,229.603 C75.6435911,228.453 75.1375911,228.016 74.3325911,228.016 C73.5275911,228.016 73.0215911,228.453 73.0215911,229.603 Z M70.4915911,238.136 L70.4915911,229.764 C70.4915911,227.188 71.8485911,225.716 74.3325911,225.716 C76.8165911,225.716 78.1735911,227.188 78.1735911,229.764 L78.1735911,238.136 C78.1735911,240.712 76.8165911,242.184 74.3325911,242.184 C71.8485911,242.184 70.4915911,240.712 70.4915911,238.136 Z M78.9608184,228.2 L78.9608184,225.9 L86.7808184,225.9 L86.7808184,228.2 L84.1358184,228.2 L84.1358184,242 L81.6058184,242 L81.6058184,228.2 L78.9608184,228.2 Z M93.3870457,225.9 L95.9630457,242 L93.4100457,242 L92.9730457,239.079 L89.8680457,239.079 L89.4310457,242 L87.1080457,242 L89.6840457,225.9 L93.3870457,225.9 Z M91.4090457,228.752 L90.1900457,236.894 L92.6280457,236.894 L91.4090457,228.752 Z M101.442273,238.136 L101.442273,235.1 L99.556273,235.1 L99.556273,242 L97.026273,242 L97.026273,225.9 L99.556273,225.9 L99.556273,232.8 L101.442273,232.8 L101.442273,229.764 C101.442273,227.188 102.799273,225.716 105.283273,225.716 C107.767273,225.716 109.124273,227.188 109.124273,229.764 L109.124273,238.136 C109.124273,240.712 107.767273,242.184 105.283273,242.184 C102.799273,242.184 101.442273,240.712 101.442273,238.136 Z M103.972273,229.603 L103.972273,238.297 C103.972273,239.447 104.478273,239.884 105.283273,239.884 C106.088273,239.884 106.594273,239.447 106.594273,238.297 L106.594273,229.603 C106.594273,228.453 106.088273,228.016 105.283273,228.016 C104.478273,228.016 103.972273,228.453 103.972273,229.603 Z M109.9575,228.2 L109.9575,225.9 L117.7775,225.9 L117.7775,228.2 L115.1325,228.2 L115.1325,242 L112.6025,242 L112.6025,228.2 L109.9575,228.2 Z M15.945,270.1 L11.943,270.1 L11.943,254 L19.027,254 L19.027,256.3 L14.473,256.3 L14.473,260.417 L15.945,260.417 C18.475,260.417 19.763,261.82 19.763,264.396 L19.763,266.121 C19.763,268.697 18.475,270.1 15.945,270.1 Z M14.473,267.8 L15.945,267.8 C16.75,267.8 17.233,267.432 17.233,266.282 L17.233,264.235 C17.233,263.085 16.75,262.717 15.945,262.717 L14.473,262.717 L14.473,267.8 Z M29.6812273,254 L26.9672273,266.006 C26.3692273,268.904 25.3802273,270.353 21.8612273,270.123 L21.8612273,267.869 C23.1492273,267.961 23.8852273,267.731 24.0922273,266.558 L24.1152273,266.42 L20.6192273,254 L23.1262273,254 L24.5062273,259.497 L25.2882273,263.269 L25.8862273,259.52 L27.0362273,254 L29.6812273,254 Z M36.4024546,270.1 L33.9414546,263.683 L33.1594546,265.155 L33.1594546,270.1 L30.6294546,270.1 L30.6294546,254 L33.1594546,254 L33.1594546,261.015 L36.4714546,254 L39.0014546,254 L35.4824546,261.176 L39.0014546,270.1 L36.4024546,270.1 Z M43.5376819,254 L45.4006819,265.431 L47.1256819,254 L50.6446819,254 L50.6446819,270.1 L48.2526819,270.1 L48.2526819,258.554 L46.5046819,270.1 L44.1126819,270.1 L42.2266819,258.715 L42.2266819,270.1 L40.0186819,270.1 L40.0186819,254 L43.5376819,254 Z M54.9049092,256.3 L54.9049092,260.785 L58.3779092,260.785 L58.3779092,263.085 L54.9049092,263.085 L54.9049092,267.8 L59.2749092,267.8 L59.2749092,270.1 L52.3749092,270.1 L52.3749092,254 L59.2749092,254 L59.2749092,256.3 L54.9049092,256.3 Z M66.5021365,270.1 L64.0411365,263.683 L63.2591365,265.155 L63.2591365,270.1 L60.7291365,270.1 L60.7291365,254 L63.2591365,254 L63.2591365,261.015 L66.5711365,254 L69.1011365,254 L65.5821365,261.176 L69.1011365,270.1 L66.5021365,270.1 Z M72.6713638,256.3 L72.6713638,260.785 L76.1443638,260.785 L76.1443638,263.085 L72.6713638,263.085 L72.6713638,267.8 L77.0413638,267.8 L77.0413638,270.1 L70.1413638,270.1 L70.1413638,254 L77.0413638,254 L77.0413638,256.3 L72.6713638,256.3 Z M82.2215911,254 C84.7515911,254 85.9935911,255.403 85.9935911,257.979 L85.9935911,260.072 C85.9935911,262.648 84.7515911,264.051 82.2215911,264.051 L81.0255911,264.051 L81.0255911,270.1 L78.4955911,270.1 L78.4955911,254 L82.2215911,254 Z M82.2215911,256.3 L81.0255911,256.3 L81.0255911,261.751 L82.2215911,261.751 C83.0265911,261.751 83.4635911,261.383 83.4635911,260.233 L83.4635911,257.818 C83.4635911,256.668 83.0265911,256.3 82.2215911,256.3 Z M92.0018184,264.097 L94.3938184,264.097 L94.3938184,266.236 C94.3938184,268.812 93.1058184,270.284 90.6218184,270.284 C88.1378184,270.284 86.8498184,268.812 86.8498184,266.236 L86.8498184,257.864 C86.8498184,255.288 88.1378184,253.816 90.6218184,253.816 C93.1058184,253.816 94.3938184,255.288 94.3938184,257.864 L94.3938184,259.428 L92.0018184,259.428 L92.0018184,257.703 C92.0018184,256.553 91.4958184,256.116 90.6908184,256.116 C89.8858184,256.116 89.3798184,256.553 89.3798184,257.703 L89.3798184,266.397 C89.3798184,267.547 89.8858184,267.961 90.6908184,267.961 C91.4958184,267.961 92.0018184,267.547 92.0018184,266.397 L92.0018184,264.097 Z M101.598046,270.1 L99.1370457,263.683 L98.3550457,265.155 L98.3550457,270.1 L95.8250457,270.1 L95.8250457,254 L98.3550457,254 L98.3550457,261.015 L101.667046,254 L104.197046,254 L100.678046,261.176 L104.197046,270.1 L101.598046,270.1 Z M109.952273,262.717 L107.836273,270.1 L105.237273,270.1 L105.237273,254 L107.491273,254 L107.491273,264.189 L108.411273,260.647 L110.481273,254 L113.264273,254 L113.264273,270.1 L110.987273,270.1 L110.987273,258.761 L109.952273,262.717 Z M117.4785,256.3 L117.4785,260.785 L120.9515,260.785 L120.9515,263.085 L117.4785,263.085 L117.4785,267.8 L121.8485,267.8 L121.8485,270.1 L114.9485,270.1 L114.9485,254 L121.8485,254 L121.8485,256.3 L117.4785,256.3 Z M132.530955,270.1 L130.069955,263.683 L129.287955,265.155 L129.287955,270.1 L126.757955,270.1 L126.757955,254 L129.287955,254 L129.287955,261.015 L132.599955,254 L135.129955,254 L131.610955,261.176 L135.129955,270.1 L132.530955,270.1 Z M138.493182,257.703 L138.493182,266.397 C138.493182,267.547 138.999182,267.984 139.804182,267.984 C140.609182,267.984 141.115182,267.547 141.115182,266.397 L141.115182,257.703 C141.115182,256.553 140.609182,256.116 139.804182,256.116 C138.999182,256.116 138.493182,256.553 138.493182,257.703 Z M135.963182,266.236 L135.963182,257.864 C135.963182,255.288 137.320182,253.816 139.804182,253.816 C142.288182,253.816 143.645182,255.288 143.645182,257.864 L143.645182,266.236 C143.645182,268.812 142.288182,270.284 139.804182,270.284 C137.320182,270.284 135.963182,268.812 135.963182,266.236 Z M147.69841,263.2 L147.69841,270.1 L145.16841,270.1 L145.16841,254 L147.69841,254 L147.69841,260.9 L150.57341,260.9 L150.57341,254 L153.14941,254 L153.14941,270.1 L150.57341,270.1 L150.57341,263.2 L147.69841,263.2 Z M154.143637,256.3 L154.143637,254 L161.963637,254 L161.963637,256.3 L159.318637,256.3 L159.318637,270.1 L156.788637,270.1 L156.788637,256.3 L154.143637,256.3 Z M165.280864,257.703 L165.280864,266.397 C165.280864,267.547 165.786864,267.984 166.591864,267.984 C167.396864,267.984 167.902864,267.547 167.902864,266.397 L167.902864,257.703 C167.902864,256.553 167.396864,256.116 166.591864,256.116 C165.786864,256.116 165.280864,256.553 165.280864,257.703 Z M162.750864,266.236 L162.750864,257.864 C162.750864,255.288 164.107864,253.816 166.591864,253.816 C169.075864,253.816 170.432864,255.288 170.432864,257.864 L170.432864,266.236 C170.432864,268.812 169.075864,270.284 166.591864,270.284 C164.107864,270.284 162.750864,268.812 162.750864,266.236 Z M175.682091,254 C178.212091,254 179.454091,255.403 179.454091,257.979 L179.454091,260.072 C179.454091,262.648 178.212091,264.051 175.682091,264.051 L174.486091,264.051 L174.486091,270.1 L171.956091,270.1 L171.956091,254 L175.682091,254 Z M175.682091,256.3 L174.486091,256.3 L174.486091,261.751 L175.682091,261.751 C176.487091,261.751 176.924091,261.383 176.924091,260.233 L176.924091,257.818 C176.924091,256.668 176.487091,256.3 175.682091,256.3 Z M184.243319,270.1 L180.517319,270.1 L180.517319,254 L183.047319,254 L183.047319,260.049 L184.243319,260.049 C186.773319,260.049 188.015319,261.452 188.015319,264.028 L188.015319,266.121 C188.015319,268.697 186.773319,270.1 184.243319,270.1 Z M183.047319,267.8 L184.243319,267.8 C185.048319,267.8 185.485319,267.432 185.485319,266.282 L185.485319,263.867 C185.485319,262.717 185.048319,262.349 184.243319,262.349 L183.047319,262.349 L183.047319,267.8 Z M191.994319,270.1 L189.464319,270.1 L189.464319,254 L191.994319,254 L191.994319,270.1 Z" id="text1"></path>
        </g>
    </g>
</svg>