<svg width="62" height="14" xmlns="http://www.w3.org/2000/svg"><path d="M4.997 7.521l.523 1.22h.05L9.023.915h1.162L5.562 10.941c-.333.687-.7 1.23-1.104 1.632-.404.4-1.01.601-1.818.601-.128 0-.274-.01-.44-.029a1.555 1.555 0 0 1-.332-.062l.083-.805c.066.016.173.03.32.041.146.011.275.017.385.017.476 0 .855-.14 1.137-.42.283-.279.554-.679.814-1.199l.44-.888L.473.914H1.61l3.387 6.607zM17.79 6.41c0 .437-.135.83-.406 1.179-.271.349-.656.617-1.154.805.57.166 1 .429 1.29.789.291.36.436.81.436 1.353 0 .819-.314 1.46-.942 1.921-.628.462-1.456.693-2.486.693-.93 0-1.739-.23-2.428-.693-.689-.462-1.02-1.122-.992-1.98l.017-.05h.921c0 .532.235.98.706 1.345.47.366 1.062.548 1.776.548.775 0 1.373-.16 1.793-.481.42-.321.631-.75.631-1.287 0-.592-.195-1.023-.585-1.295-.39-.27-.992-.406-1.806-.406h-1.37v-.864h1.37c.786 0 1.355-.137 1.706-.41.352-.274.527-.669.527-1.183 0-.498-.185-.902-.556-1.212-.37-.31-.94-.465-1.71-.465-.647 0-1.2.163-1.656.49-.456.326-.685.738-.685 1.236h-.913l-.016-.05c-.033-.735.274-1.339.921-1.809.648-.47 1.43-.706 2.35-.706 1.023 0 1.823.219 2.398.656.576.437.863 1.063.863 1.876zM26.956 13h-.996V8.883h-4.84V13h-.995V4.019h.996v4.025h4.84V4.02h.995V13zm8.278 0a9.041 9.041 0 0 1-.141-.789 5.416 5.416 0 0 1-.041-.672c-.333.47-.775.86-1.329 1.17-.553.31-1.176.465-1.867.465-.875 0-1.554-.232-2.038-.697-.484-.465-.726-1.087-.726-1.868 0-.83.358-1.494 1.075-1.992.716-.498 1.683-.747 2.9-.747h1.985V6.758c0-.642-.207-1.146-.619-1.51-.412-.366-.99-.549-1.73-.549-.692 0-1.266.175-1.723.523-.457.349-.685.775-.685 1.278l-.913-.008-.017-.05c-.033-.67.273-1.268.918-1.797.644-.528 1.465-.792 2.46-.792.991 0 1.788.251 2.392.755.603.503.904 1.226.904 2.166v4.416c0 .316.018.623.054.922.036.299.096.595.179.888h-1.038zm-3.262-.706c.714 0 1.345-.167 1.893-.502.547-.335.943-.762 1.187-1.282V8.634H33.05c-.902 0-1.623.192-2.162.577-.54.384-.81.862-.81 1.432 0 .487.168.884.503 1.19.334.308.798.461 1.39.461zm13-7.429h-3.27V13h-.987V4.865H37.56V4.02h7.413v.846zm2.717 2.416h2.573c1.035 0 1.842.264 2.42.792.578.529.867 1.214.867 2.055 0 .847-.289 1.537-.867 2.071-.578.534-1.385.801-2.42.801h-3.56V4.019h.987V7.28zm0 .846v4.035h2.573c.77 0 1.344-.193 1.723-.577.379-.385.568-.865.568-1.44 0-.554-.19-1.028-.572-1.424-.382-.396-.955-.594-1.719-.594H47.69zm9.755 1.52c.006-.725.067-1.23.183-1.515.116-.285.432-.663.946-1.133.598-.62 1.034-1.14 1.308-1.557.274-.418.41-.948.41-1.59 0-.708-.188-1.256-.564-1.643-.376-.387-.913-.581-1.61-.581-.653 0-1.179.19-1.577.569-.399.379-.6.892-.606 1.54h-.93l-.017-.05c-.016-.914.271-1.633.864-2.159.592-.525 1.347-.788 2.266-.788.99 0 1.766.28 2.328.838.562.559.843 1.314.843 2.266 0 .747-.184 1.41-.552 1.988-.368.579-.89 1.183-1.565 1.814-.343.293-.552.567-.627.822-.075.254-.112.647-.112 1.178h-.988zM58.564 13h-1.153v-1.278h1.154V13z" fill="#292929" fill-rule="evenodd"/></svg>
